<svg preserveAspectRatio="none" width="100%" height="100%" overflow="visible" style="display: block;" viewBox="0 0 267.691 363.808" fill="none" xmlns="http://www.w3.org/2000/svg">
<path id="Vector" d="M133.851 0H15.2761C6.83534 0 0 6.83744 0 15.2808V358.96C0 361.64 2.16682 363.808 4.8458 363.808C4.8458 362.507 5.37766 361.236 6.29363 360.32C6.52017 360.093 6.77625 359.886 7.04217 359.709C7.3081 359.532 7.59373 359.384 7.8892 359.256C8.18468 359.138 8.49985 359.039 8.81503 358.98C9.44538 358.852 10.1053 358.852 10.7356 358.98C11.0508 359.039 11.3561 359.138 11.6614 359.256C11.9569 359.384 12.2425 359.532 12.5085 359.709C12.7744 359.886 13.0305 360.093 13.257 360.32C13.4835 360.547 13.6904 360.803 13.8677 361.069C14.045 361.335 14.2025 361.62 14.3207 361.926C14.4488 362.221 14.5374 362.527 14.6064 362.842C14.6655 363.157 14.695 363.482 14.695 363.808H23.904C23.904 361.088 26.1004 358.881 28.8187 358.881C31.5371 358.881 33.7532 361.088 33.7532 363.808H42.9523C42.9523 361.088 45.1586 358.881 47.8769 358.881C50.5953 358.881 52.8015 361.088 52.8015 363.808H62.0007C62.0007 361.088 64.2069 358.881 66.9253 358.881C69.6437 358.881 71.8499 361.088 71.8499 363.808H81.049C81.049 361.088 83.2552 358.881 85.9736 358.881C88.692 358.881 90.8982 361.088 90.8982 363.808H100.097C100.097 361.088 102.304 358.881 105.022 358.881C107.74 358.881 109.947 361.088 109.947 363.808H119.146C119.146 362.507 119.678 361.236 120.594 360.32C120.82 360.093 121.066 359.886 121.342 359.709C121.608 359.532 121.894 359.384 122.189 359.256C122.485 359.138 122.8 359.039 123.115 358.98C124.71 358.655 126.414 359.177 127.557 360.32C128.473 361.236 128.995 362.507 128.995 363.808H138.696C138.696 362.507 139.228 361.236 140.144 360.32C140.371 360.093 140.627 359.886 140.893 359.709C141.159 359.532 141.444 359.384 141.74 359.256C142.035 359.138 142.35 359.039 142.666 358.98C143.296 358.852 143.956 358.852 144.586 358.98C144.901 359.039 145.207 359.138 145.512 359.256C145.807 359.384 146.093 359.532 146.359 359.709C146.625 359.886 146.881 360.093 147.108 360.32C147.334 360.547 147.541 360.803 147.718 361.069C147.895 361.335 148.053 361.62 148.171 361.926C148.299 362.221 148.388 362.527 148.457 362.842C148.516 363.157 148.546 363.482 148.546 363.808H157.755C157.755 361.088 159.951 358.881 162.669 358.881C165.388 358.881 167.604 361.088 167.604 363.808H176.803C176.803 361.088 179.009 358.881 181.727 358.881C184.446 358.881 186.652 361.088 186.652 363.808H195.851C195.851 361.088 198.057 358.881 200.776 358.881C203.494 358.881 205.7 361.088 205.7 363.808H214.9C214.9 361.088 217.106 358.881 219.824 358.881C222.543 358.881 224.749 361.088 224.749 363.808H233.948C233.948 361.088 236.154 358.881 238.872 358.881C241.591 358.881 243.797 361.088 243.797 363.808H252.996C252.996 362.507 253.528 361.236 254.444 360.32C254.671 360.093 254.917 359.886 255.193 359.709C255.459 359.532 255.744 359.384 256.04 359.256C256.335 359.138 256.65 359.039 256.965 358.98C258.561 358.655 260.265 359.177 261.407 360.32C262.323 361.236 262.845 362.507 262.845 363.808C265.524 363.808 267.691 361.64 267.691 358.96V15.2808C267.691 6.84729 260.856 0 252.415 0H133.841H133.851Z" fill="var(--fill-0, #8CD7DE)"/>
</svg>
