<svg preserveAspectRatio="none" width="100%" height="100%" overflow="visible" style="display: block;" viewBox="0 0 290.501 394.808" fill="none" xmlns="http://www.w3.org/2000/svg">
<path id="Vector" d="M145.256 0H16.5778C7.41778 0 0 7.42006 0 16.5829V389.547C0 392.455 2.35146 394.808 5.25871 394.808C5.25871 393.396 5.83589 392.017 6.82991 391.023C7.07575 390.777 7.35365 390.552 7.64224 390.36C7.93083 390.167 8.24079 390.007 8.56144 389.868C8.8821 389.74 9.22413 389.633 9.56616 389.569C10.2502 389.43 10.9663 389.43 11.6504 389.569C11.9924 389.633 12.3238 389.74 12.6551 389.868C12.9758 390.007 13.2857 390.167 13.5743 390.36C13.8629 390.552 14.1408 390.777 14.3866 391.023C14.6325 391.269 14.8569 391.547 15.0493 391.835C15.2417 392.124 15.4127 392.434 15.541 392.766C15.6799 393.086 15.7761 393.418 15.851 393.76C15.9151 394.102 15.9472 394.455 15.9472 394.808H25.9409C25.9409 391.857 28.3244 389.462 31.2744 389.462C34.2244 389.462 36.6293 391.857 36.6293 394.808H46.6123C46.6123 391.857 49.0065 389.462 51.9565 389.462C54.9065 389.462 57.3007 391.857 57.3007 394.808H67.2838C67.2838 391.857 69.678 389.462 72.628 389.462C75.578 389.462 77.9722 391.857 77.9722 394.808H87.9552C87.9552 391.857 90.3494 389.462 93.2994 389.462C96.2494 389.462 98.6436 391.857 98.6436 394.808H108.627C108.627 391.857 111.021 389.462 113.971 389.462C116.921 389.462 119.315 391.857 119.315 394.808H129.298C129.298 393.396 129.875 392.017 130.869 391.023C131.115 390.777 131.382 390.552 131.682 390.36C131.97 390.167 132.28 390.007 132.601 389.868C132.921 389.74 133.264 389.633 133.606 389.569C135.337 389.216 137.186 389.783 138.426 391.023C139.42 392.017 139.987 393.396 139.987 394.808H150.515C150.515 393.396 151.092 392.017 152.086 391.023C152.332 390.777 152.61 390.552 152.898 390.36C153.187 390.167 153.497 390.007 153.817 389.868C154.138 389.74 154.48 389.633 154.822 389.569C155.506 389.43 156.222 389.43 156.906 389.569C157.248 389.633 157.58 389.74 157.911 389.868C158.232 390.007 158.542 390.167 158.83 390.36C159.119 390.552 159.397 390.777 159.643 391.023C159.888 391.269 160.113 391.547 160.305 391.835C160.498 392.124 160.669 392.434 160.797 392.766C160.936 393.086 161.032 393.418 161.107 393.76C161.171 394.102 161.203 394.455 161.203 394.808H171.197C171.197 391.857 173.58 389.462 176.53 389.462C179.48 389.462 181.885 391.857 181.885 394.808H191.868C191.868 391.857 194.262 389.462 197.212 389.462C200.162 389.462 202.557 391.857 202.557 394.808H212.54C212.54 391.857 214.934 389.462 217.884 389.462C220.834 389.462 223.228 391.857 223.228 394.808H233.211C233.211 391.857 235.605 389.462 238.555 389.462C241.505 389.462 243.9 391.857 243.9 394.808H253.883C253.883 391.857 256.277 389.462 259.227 389.462C262.177 389.462 264.571 391.857 264.571 394.808H274.554C274.554 393.396 275.131 392.017 276.125 391.023C276.371 390.777 276.638 390.552 276.938 390.36C277.226 390.167 277.536 390.007 277.857 389.868C278.177 389.74 278.519 389.633 278.861 389.569C280.593 389.216 282.442 389.783 283.682 391.023C284.676 392.017 285.242 393.396 285.242 394.808C288.15 394.808 290.501 392.455 290.501 389.547V16.5829C290.501 7.43075 283.083 0 273.923 0H145.245H145.256Z" fill="var(--fill-0, #E9FF3E)"/>
</svg>
